<?xml version="1.0" encoding="utf-8"?>
<!-- Generator: Adobe Illustrator 15.0.0, SVG Export Plug-In  -->
<!DOCTYPE svg PUBLIC "-//W3C//DTD SVG 1.1//EN" "http://www.w3.org/Graphics/SVG/1.1/DTD/svg11.dtd" [
	<!ENTITY ns_flows "http://ns.adobe.com/Flows/1.0/">
]>
<svg version="1.1"
	 xmlns="http://www.w3.org/2000/svg" xmlns:xlink="http://www.w3.org/1999/xlink" xmlns:a="http://ns.adobe.com/AdobeSVGViewerExtensions/3.0/"
	 x="0px" y="0px" width="77px" height="77px" viewBox="-13.667 -12.48 77 77"
	 overflow="visible" enable-background="new -13.667 -12.48 77 77" xml:space="preserve">
<defs>
</defs>
<path d="M16.573,35.52c0,0.32,0,0.64,0,0.96c0.64,0.48,1.28,0.96,1.92,1.44c0,0.32,0,0.64,0,0.96c0.32,0.16,0.64,0.32,0.96,0.48
	c0,0.16,0,0.32,0,0.48c0.32,0.16,0.64,0.32,0.96,0.48c0,0.32,0,0.64,0,0.96c0.16,0,0.32,0,0.48,0c0.561,0.708,0.682,0.85,0.96,1.92
	c0.48,0,0.96,0,1.44,0c0-0.16,0-0.32,0-0.48c0.16,0,0.32,0,0.48,0c0-0.48,0-0.96,0-1.44c-0.806-0.668-1.876-2.433-2.4-3.36
	c0-0.32,0-0.64,0-0.96c-0.32-0.16-0.64-0.32-0.96-0.48c0-0.32,0-0.64,0-0.96c-0.16,0-0.32,0-0.48,0c-0.16-0.64-0.32-1.28-0.48-1.92
	c-0.16,0-0.32,0-0.48,0c-0.48-0.64-0.96-1.28-1.44-1.92c-0.32,0-0.64,0-0.96,0c-0.16-0.32-0.32-0.64-0.48-0.96
	c-0.32,0-0.64,0-0.96,0c-0.32-0.48-0.64-0.96-0.96-1.44c-0.32,0-0.64,0-0.96,0c-0.32-0.48-0.64-0.96-0.96-1.44
	c-1.612-1.125-2.721-0.59-3.36-2.88c1.624-0.958,4.557-3.972,5.28-5.76c0-0.64,0-1.28,0-1.92c0.16,0,0.32,0,0.48,0
	c0-0.48,0-0.96,0-1.44c0.16,0,0.32,0,0.48,0c0-0.64,0-1.28,0-1.92c0.48-1.44,0.96-2.88,1.44-4.32c0.597,0.32,0.663,0.762,0.96,0.96
	c0.32,0,0.64,0,0.96,0c0.16,0.32,0.32,0.64,0.48,0.96c0.32,0,0.64,0,0.96,0c0.16,0.32,0.32,0.64,0.48,0.96c0.32,0,0.64,0,0.96,0
	c0.16,0.32,0.32,0.64,0.48,0.96c0.48,0.16,0.96,0.32,1.44,0.48c0,0.16,0,0.32,0,0.48c0.48,0.16,0.96,0.32,1.44,0.48
	c0.16-0.32,0.32-0.64,0.48-0.96c0.16,0,0.32,0,0.48,0c0-0.16,0-0.32,0-0.48c-0.16,0-0.32,0-0.48,0
	c-0.329-1.243-0.753-1.566-1.44-2.4c-0.16,0-0.32,0-0.48,0c0-0.32,0-0.64,0-0.96c-0.32-0.16-0.64-0.32-0.96-0.48
	c0-0.16,0-0.32,0-0.48c-0.32-0.16-0.64-0.32-0.96-0.48c0-0.32,0-0.64,0-0.96c-0.997-1.396-1.542-0.231-1.92-2.88
	c2.72-1.6,5.44-3.2,8.16-4.8c0.8,0.32,1.6,0.64,2.4,0.96c0.16,0.48,0.32,0.96,0.48,1.44c0.16,0,0.32,0,0.48,0c0,0.48,0,0.96,0,1.44
	c0.16,0,0.32,0,0.48,0c0,0.32,0,0.64,0,0.96c0.16,0,0.32,0,0.48,0c0,0.64,0,1.28,0,1.92c0.16,0,0.32,0,0.48,0c0,0.48,0,0.96,0,1.44
	c0.16,0,0.32,0,0.48,0c0,0.48,0,0.96,0,1.44c0.16,0,0.32,0,0.48,0c0,0.48,0,0.96,0,1.44c0.16,0,0.32,0,0.48,0c0,0.48,0,0.96,0,1.44
	c0.16,0,0.32,0,0.48,0c0,0.48,0,0.96,0,1.44c0.16,0,0.32,0,0.48,0c0,0.64,0,1.28,0,1.92c0.409,1.129,1.133,2.389,1.44,3.84
	c-0.48,0.32-0.96,0.64-1.44,0.96c0,0.32,0,0.64,0,0.96c-0.8,0.64-1.6,1.28-2.4,1.92c0,0.32,0,0.64,0,0.96
	c-0.32,0.16-0.64,0.32-0.96,0.48c-1.054,1.126-2.164,2.384-2.4,4.32c0.733,0.277,0.787,0.366,1.92,0.48
	c0.759-1.273,6.503-5.341,8.16-5.76c0,0.16,0,0.32,0,0.48c0.641,0.523,0.884,1.317,1.44,1.92c0.32,0.16,0.64,0.32,0.96,0.48
	c0,0.32,0,0.64,0,0.96c0.64,0.48,1.28,0.96,1.92,1.44c0.16,0.48,0.32,0.96,0.48,1.44c0.32,0.16,0.64,0.32,0.96,0.48
	c1.021,1.612,1.436,8.269,1.44,11.04c-1.44,1.28-2.88,2.56-4.32,3.84c-0.16,0.32-0.32,0.64-0.48,0.96c-0.32,0-0.64,0-0.96,0
	c-0.16,0.32-0.32,0.64-0.48,0.96c-0.64,0.16-1.28,0.32-1.92,0.48c-0.16,0.32-0.32,0.64-0.48,0.96c-0.8,0.16-1.6,0.32-2.4,0.48
	c0,0.16,0,0.32,0,0.48c-0.32,0-0.64,0-0.96,0c0,0.16,0,0.32,0,0.48c-1.12,0.16-2.24,0.32-3.36,0.48c0,0.16,0,0.32,0,0.48
	c-0.8,0-1.6,0-2.4,0c-5.911,1.736-12.564-0.857-16.32-2.88c-0.64-0.16-1.28-0.32-1.92-0.48c-0.16-0.32-0.32-0.64-0.48-0.96
	c-0.32,0-0.64,0-0.96,0c-0.32-0.48-0.64-0.96-0.96-1.44c-0.32,0-0.64,0-0.96,0c-0.96-1.12-1.92-2.24-2.88-3.36
	c-0.16,0-0.32,0-0.48,0c0-1.44,0-2.88,0-4.32c1.276-1.479,0.637-6.275,1.92-7.68c0.979,1.073,2.001,0.794,3.36,1.44
	c0,0.16,0,0.32,0,0.48c0.48,0,0.96,0,1.44,0c0,0.16,0,0.32,0,0.48c0.32,0,0.64,0,0.96,0c0,0.16,0,0.32,0,0.48
	C13.053,34.24,14.813,34.88,16.573,35.52z"/>
<path display="none" d="M24.733,25.92c-0.8,0.96-1.6,1.92-2.4,2.88c-0.16,0-0.32,0-0.48,0c0,0.32,0,0.64,0,0.96
	c-0.48,0.32-0.96,0.64-1.44,0.96c0,0.32,0,0.64,0,0.96c-0.48,0.32-0.96,0.64-1.44,0.96c-0.16,0.64-0.32,1.28-0.48,1.92
	c-0.16,0-0.32,0-0.48,0c-0.32,0.959-0.64,1.92-0.96,2.88c-0.16,0-0.32,0-0.48,0c-0.604,1.609-0.317,4.897,0.48,5.76
	c0.326,1.803,1.149,2.938,2.88,3.36c1.309,1.412,6.98,2.109,8.64,0.48c1.866-0.357,3.046-1.473,3.84-2.88
	c0.672-0.645,1.546-3.989,0.96-5.76c-0.16,0-0.32,0-0.48,0c0-0.48,0-0.96,0-1.44c-0.16,0-0.32,0-0.48,0c0-0.32,0-0.64,0-0.96
	c-0.16,0-0.32,0-0.48,0c-0.32-0.96-0.64-1.92-0.96-2.88c-0.32-0.16-0.64-0.32-0.96-0.48c0-0.32,0-0.64,0-0.96
	c-0.48-0.32-0.96-0.64-1.44-0.96c0-0.32,0-0.64,0-0.96c-0.48-0.32-0.96-0.64-1.44-0.96C26.333,27.84,25.533,26.88,24.733,25.92z"/>
<path display="none" d="M38.173,4.8c-5.166-0.132-9.381-0.977-13.92,0.48c-1.28,0.16-2.56,0.32-3.84,0.48c0,0.16,0,0.32,0,0.48
	c-0.32,0-0.64,0-0.96,0c-0.16,0.32-0.32,0.64-0.48,0.96c-0.64,0.16-1.28,0.32-1.92,0.48c-0.16,0.32-0.32,0.64-0.48,0.96
	c-0.32,0-0.64,0-0.96,0c-0.8,0.96-1.6,1.92-2.4,2.88c-0.32,0.16-0.64,0.32-0.96,0.48c0,0.32,0,0.64,0,0.96
	c-0.32,0.16-0.64,0.32-0.96,0.48c-1.282,1.933-2.656,5.288-3.36,7.68c-0.508,1.727,0.176,4.76,0.48,5.76c0,0.8,0,1.6,0,2.4
	c0.16,0,0.32,0,0.48,0c0.16,0.96,0.32,1.92,0.48,2.88c1.157,2.598,3.373,4.368,5.28,6.24c0.32,0.48,0.64,0.96,0.96,1.44
	c0.32,0,0.64,0,0.96,0c0.16,0.32,0.32,0.64,0.48,0.96c0.64,0.16,1.28,0.32,1.92,0.48c0,0.16,0,0.32,0,0.48c0.32,0,0.64,0,0.96,0
	c0,0.16,0,0.32,0,0.48c0.48,0,0.96,0,1.44,0c0,0.16,0,0.32,0,0.48c0.64,0,1.28,0,1.92,0c0,0.16,0,0.32,0,0.48
	c1.596,0.468,7.343-0.529,8.16-0.96c0.16-0.32,0.32-0.64,0.48-0.96c0.64-0.16,1.28-0.32,1.92-0.48c0.16-0.32,0.32-0.64,0.48-0.96
	c0.32,0,0.64,0,0.96,0c0.8-0.96,1.6-1.92,2.4-2.88c0.32-0.16,0.64-0.32,0.96-0.48c0-0.32,0-0.64,0-0.96
	c0.32-0.16,0.64-0.32,0.96-0.48c0.508-0.951,0.556-2.708,0.96-3.84c0.16,0,0.32,0,0.48,0c1.427-4.53-2.448-11.225-4.32-12.48
	c-1.44-0.48-2.88-0.96-4.32-1.44c0-0.16,0-0.32,0-0.48c-2.706-0.852-5.431,0.588-7.2,0.96c-0.96,1.12-1.92,2.24-2.88,3.36
	c0,1.44,0,2.88,0,4.32c0.32,0.16,0.64,0.32,0.96,0.48c0,0.32,0,0.64,0,0.96c1.398-0.356,1.611-0.569,2.4-1.44c0.16,0,0.32,0,0.48,0
	c0-0.32,0-0.64,0-0.96c0.32-0.16,0.64-0.32,0.96-0.48c0-0.16,0-0.32,0-0.48c0.32,0,0.64,0,0.96,0c0-0.16,0-0.32,0-0.48
	c1.12,0,2.24,0,3.36,0c0,0.16,0,0.32,0,0.48c0.64,0.16,1.28,0.32,1.92,0.48c1.032,0.721,1.857,2.971,1.92,4.8c-0.16,0-0.32,0-0.48,0
	c0,0.64,0,1.28,0,1.92c-0.16,0-0.32,0-0.48,0c0,0.32,0,0.64,0,0.96c-0.16,0-0.32,0-0.48,0c0,0.32,0,0.64,0,0.96
	c-1.12,0.96-2.24,1.92-3.36,2.88c-0.32,0-0.64,0-0.96,0c0,0.16,0,0.32,0,0.48c-0.48,0-0.96,0-1.44,0c0,0.16,0,0.32,0,0.48
	c-2.171,0.679-4.584-0.491-5.76-0.96c-0.48,0-0.96,0-1.44,0c-0.16-0.32-0.32-0.64-0.48-0.96c-0.64-0.16-1.28-0.32-1.92-0.48
	c-1.934-1.315-6.307-7.849-4.8-12.48c0.16,0,0.32,0,0.48,0c0-0.48,0-0.96,0-1.44c0.16,0,0.32,0,0.48,0
	c0.16-0.96,0.32-1.92,0.48-2.88c0.16,0,0.32,0,0.48,0c0-0.32,0-0.64,0-0.96c0.32-0.16,0.64-0.32,0.96-0.48c0-0.32,0-0.64,0-0.96
	c0.32-0.16,0.64-0.32,0.96-0.48c0.48-0.64,0.96-1.28,1.44-1.92c0.32,0,0.64,0,0.96,0c0.16-0.32,0.32-0.64,0.48-0.96
	c0.64-0.16,1.28-0.32,1.92-0.48c0-0.16,0-0.32,0-0.48c0.32,0,0.64,0,0.96,0c0-0.16,0-0.32,0-0.48c0.64,0,1.28,0,1.92,0
	c0-0.16,0-0.32,0-0.48c1.298-0.429,6.368-1.014,8.16-0.48c0,0.16,0,0.32,0,0.48c0.8,0,1.6,0,2.4,0c0,0.16,0,0.32,0,0.48
	c0.32,0,0.64,0,0.96,0c0,0.16,0,0.32,0,0.48c0.48,0,0.96,0,1.44,0c0,0.16,0,0.32,0,0.48c0.32,0,0.64,0,0.96,0c0,0.16,0,0.32,0,0.48
	c0.32,0,0.64,0,0.96,0c0,0.16,0,0.32,0,0.48c0.48,0.16,0.96,0.32,1.44,0.48c0.16,0.32,0.32,0.64,0.48,0.96c0.32,0,0.64,0,0.96,0
	c0,0.16,0,0.32,0,0.48c0.64,0.48,1.28,0.96,1.92,1.44c0,0.32,0,0.64,0,0.96c0.48,0.32,0.96,0.64,1.44,0.96c0,0.32,0,0.64,0,0.96
	c0.32,0.16,0.64,0.32,0.96,0.48c0,0.32,0,0.64,0,0.96c0.16,0,0.32,0,0.48,0c0.16,0.64,0.32,1.28,0.48,1.92c0.16,0,0.32,0,0.48,0
	c0,0.64,0,1.28,0,1.92c1.596,4.97,0.835,7.911-0.96,12c0,0.48,0,0.96,0,1.44c-0.16,0-0.32,0-0.48,0c-0.16,0.64-0.32,1.28-0.48,1.92
	c-0.16,0-0.32,0-0.48,0c0,0.32,0,0.64,0,0.96c-0.32,0.16-0.64,0.32-0.96,0.48c-0.16,0.64-0.32,1.28-0.48,1.92
	c-0.96,0.8-1.92,1.6-2.88,2.4c-0.16,0.48-0.32,0.96-0.48,1.44c-0.32,0-0.64,0-0.96,0c-0.32,0.48-0.64,0.96-0.96,1.44
	c-0.32,0-0.64,0-0.96,0c-0.16,0.32-0.32,0.64-0.48,0.96c-0.32,0-0.64,0-0.96,0c-0.16,0.32-0.32,0.64-0.48,0.96
	c-0.32,0-0.64,0-0.96,0c0,0.16,0,0.32,0,0.48c-0.48,0-0.96,0-1.44,0c0,0.16,0,0.32,0,0.48c-0.32,0-0.64,0-0.96,0
	c0,0.16,0,0.32,0,0.48c-1.58,0.667-8.07,1.695-10.56,0.96c0-0.16,0-0.32,0-0.48c-0.8,0-1.6,0-2.4,0c0-0.16,0-0.32,0-0.48
	c-0.48,0-0.96,0-1.44,0c0-0.16,0-0.32,0-0.48c-0.48,0-0.96,0-1.44,0c0-0.16,0-0.32,0-0.48c-0.48,0-0.96,0-1.44,0
	c0-0.16,0-0.32,0-0.48c-0.32,0-0.64,0-0.96,0c0-0.16,0-0.32,0-0.48c-0.32,0-0.64,0-0.96,0c-0.16-0.32-0.32-0.64-0.48-0.96
	c-0.64-0.16-1.28-0.32-1.92-0.48c-0.32-0.48-0.64-0.96-0.96-1.44c-0.32,0-0.64,0-0.96,0c-0.48-0.64-0.96-1.28-1.44-1.92
	c-0.8-0.64-1.6-1.28-2.4-1.92c0-0.32,0-0.64,0-0.96c-0.48-0.32-0.96-0.64-1.44-0.96c0-0.32,0-0.64,0-0.96
	c-0.32-0.16-0.64-0.32-0.96-0.48c0-0.32,0-0.64,0-0.96l-0.96-0.96c0-0.32,0-0.64,0-0.96c-0.16,0-0.32,0-0.48,0c0-0.32,0-0.64,0-0.96
	c-0.16,0-0.32,0-0.48,0c0-0.32,0-0.64,0-0.96c-0.16,0-0.32,0-0.48,0c-0.16-1.12-0.32-2.24-0.48-3.36c-0.16,0-0.32,0-0.48,0
	c-0.753-2.413,0.356-11.557,0.96-12.96c0.16,0,0.32,0,0.48,0c0-0.32,0-0.64,0-0.96c0.16,0,0.32,0,0.48,0c0-0.48,0-0.96,0-1.44
	c0.32-0.16,0.64-0.32,0.96-0.48c0-0.32,0-0.64,0-0.96c0.16,0,0.32,0,0.48,0c0-0.32,0-0.64,0-0.96c0.32-0.16,0.64-0.32,0.96-0.48
	c0-0.32,0-0.64,0-0.96c0.48-0.32,0.96-0.64,1.44-0.96c0-0.32,0-0.64,0-0.96c1.12-0.959,2.24-1.92,3.36-2.88
	c0.16-0.32,0.32-0.64,0.48-0.96c0.32,0,0.64,0,0.96,0c0.32-0.48,0.64-0.96,0.96-1.44c0.32,0,0.64,0,0.96,0l0.96-0.96
	c0.32,0,0.64,0,0.96,0c0-0.16,0-0.32,0-0.48c0.32,0,0.64,0,0.96,0c0-0.16,0-0.32,0-0.48c0.32,0,0.64,0,0.96,0c0-0.16,0-0.32,0-0.48
	c1.919-0.32,3.84-0.64,5.76-0.96c0-0.16,0-0.32,0-0.48c2.88,0,5.76,0,8.64,0c1.919,0.64,3.84,1.28,5.76,1.92
	C37.315,3.421,37.814,3.445,38.173,4.8z"/>
<path display="none" d="M36.253,15.36c-0.48-0.32-0.96-0.64-1.44-0.96c-0.16-0.48-0.32-0.96-0.48-1.44
	c-0.32-0.16-0.64-0.32-0.96-0.48c0-0.32,0-0.64,0-0.96c-0.32-0.16-0.64-0.32-0.96-0.48c0-0.32,0-0.64,0-0.96
	c-0.48-0.32-0.96-0.64-1.44-0.96c0-0.32,0-0.64,0-0.96c-0.32-0.16-0.64-0.32-0.96-0.48c-0.16-0.64-0.32-1.28-0.48-1.92
	c-0.32-0.16-0.64-0.32-0.96-0.48c-0.16-0.8-0.32-1.6-0.48-2.4c-0.16,0-0.32,0-0.48,0c-0.32-0.48-0.64-0.96-0.96-1.44
	c-0.96-0.16-1.92-0.32-2.88-0.48c0,0.16,0,0.32,0,0.48c-0.32,0-0.64,0-0.96,0c-0.16,0.32-0.32,0.64-0.48,0.96c-0.16,0-0.32,0-0.48,0
	c0,0.48,0,0.96,0,1.44c-0.32,0.16-0.64,0.32-0.96,0.48c-0.32,0.96-0.64,1.92-0.96,2.88c-0.32,0.16-0.64,0.32-0.96,0.48
	c0,0.32,0,0.64,0,0.96c-0.16,0-0.32,0-0.48,0c-0.16,0.48-0.32,0.96-0.48,1.44c-0.32,0.16-0.64,0.32-0.96,0.48c0,0.32,0,0.64,0,0.96
	c-0.64,0.48-1.28,0.96-1.92,1.44c0,0.32,0,0.64,0,0.96c-0.32,0.16-0.64,0.32-0.96,0.48c0,0.32,0,0.64,0,0.96
	c-0.64,0.48-1.28,0.96-1.92,1.44c0,0.32,0,0.64,0,0.96c-0.32,0.16-0.64,0.32-0.96,0.48c0,0.32,0,0.64,0,0.96
	c-0.32,0.16-0.64,0.32-0.96,0.48c-0.16,0.64-0.32,1.28-0.48,1.92c-0.16,0-0.32,0-0.48,0c-0.32,0.96-0.64,1.92-0.96,2.88
	c-0.16,0-0.32,0-0.48,0c0,0.48,0,0.96,0,1.44c-0.16,0-0.32,0-0.48,0c0,0.64,0,1.28,0,1.92c-0.16,0-0.32,0-0.48,0
	c0,0.96,0,1.92,0,2.88c-0.16,0-0.32,0-0.48,0c0.16,2.88,0.32,5.76,0.48,8.64c0.16,0,0.32,0,0.48,0c0.16,0.64,0.32,1.28,0.48,1.92
	c0.16,0,0.32,0,0.48,0c0.16,0.8,0.32,1.6,0.48,2.4c0.64,0.48,1.28,0.96,1.92,1.44c0,0.32,0,0.64,0,0.96l0.96,0.96
	c0.32,0,0.64,0,0.96,0c0.32,0.48,0.64,0.96,0.96,1.44c0.32,0,0.64,0,0.96,0c0.16,0.32,0.32,0.64,0.48,0.96c0.48,0,0.96,0,1.44,0
	c0,0.16,0,0.32,0,0.48c0.32,0,0.64,0,0.96,0c0,0.16,0,0.32,0,0.48c0.64,0,1.28,0,1.92,0c0,0.16,0,0.32,0,0.48c0.48,0,0.96,0,1.44,0
	c0,0.16,0,0.32,0,0.48c2.72,0,5.44,0,8.16,0c0-0.16,0-0.32,0-0.48c0.48,0,0.96,0,1.44,0c0-0.16,0-0.32,0-0.48c0.48,0,0.96,0,1.44,0
	c0-0.16,0-0.32,0-0.48c0.48,0,0.96,0,1.44,0c0-0.16,0-0.32,0-0.48c0.32,0,0.64,0,0.96,0c0-0.16,0-0.32,0-0.48c0.32,0,0.64,0,0.96,0
	c0.16-0.32,0.32-0.64,0.48-0.96c4.844-3.259,7.211-6.737,7.2-14.88c0-1.28,0-2.56,0-3.84C41.389,23.776,39.172,19.504,36.253,15.36z
	 M36.733,40.32c-0.16,0-0.32,0-0.48,0c0,0.32,0,0.64,0,0.96c-0.8,0.64-1.6,1.28-2.4,1.92c-0.32,0.48-0.64,0.96-0.96,1.44
	c-0.32,0-0.64,0-0.96,0c0,0.16,0,0.32,0,0.48c-0.64,0.16-1.28,0.32-1.92,0.48c0,0.16,0,0.32,0,0.48c-0.48,0-0.96,0-1.44,0
	c0,0.16,0,0.32,0,0.48c-0.96,0-1.92,0-2.88,0c0,0.16,0,0.32,0,0.48c-2.018-0.254-1.561-0.68-2.88-1.44
	c0.58-3.987,2.173-1.844,5.28-2.88c0-0.16,0-0.32,0-0.48c0.48,0,0.96,0,1.44,0c0.16-0.32,0.32-0.64,0.48-0.96c0.32,0,0.64,0,0.96,0
	c3.192-2.238,3.505-6.893,4.32-11.52c0.8,0,1.6,0,2.4,0c0.395,0.622,0.329,0.572,0.96,0.96
	C38.686,34.795,38.173,37.715,36.733,40.32z"/>
<path display="none" d="M44.413,25.44c-0.16,0-0.32,0-0.48,0c0-0.48,0-0.96,0-1.44c-0.16,0-0.32,0-0.48,0c0-0.32,0-0.64,0-0.96
	c-0.16,0-0.32,0-0.48,0c-0.48-1.44-0.96-2.88-1.44-4.32c-0.16,0-0.32,0-0.48,0c-0.16-0.48-0.32-0.96-0.48-1.44
	c-0.32-0.16-0.64-0.32-0.96-0.48c0-0.32,0-0.64,0-0.96c-0.48-0.32-0.96-0.64-1.44-0.96c-0.959-1.353-0.861-2.005-2.4-2.88
	c0-0.16,0-0.32,0-0.48c-0.16,0-0.32,0-0.48,0c-0.175,0.338-0.96,0.96-0.96,0.96c0,1.6,0,3.2,0,4.8c-0.16,0-0.32,0-0.48,0
	c-0.16,0.48-0.32,0.96-0.48,1.44c-3.821,1.644-7.781,0.711-8.64-3.36c-0.16,0-0.32,0-0.48,0c0-0.96,0-1.92,0-2.88
	c-1.261-4.234,0.689-8.39,1.44-12c-0.16,0-0.32,0-0.48,0c-0.544-0.538,0.005-0.205-0.96-0.48c-0.835,0.966-1.055,0.397-1.92,0.96
	c-0.16,0.32-0.32,0.64-0.48,0.96c-2.246,1.51-4.359,2.417-5.76,4.8c-0.32,0-0.64,0-0.96,0c0,0.32,0,0.64,0,0.96
	c-0.32,0-0.64,0-0.96,0c0,0.32,0,0.64,0,0.96c-0.32,0-0.64,0-0.96,0c-0.591,2.085-1.521,1.637-2.4,2.88c0,0.32,0,0.64,0,0.96
	c-0.32,0.16-0.64,0.32-0.96,0.48c0,0.32,0,0.64,0,0.96c-0.32,0.16-0.64,0.32-0.96,0.48c-0.16,0.64-0.32,1.28-0.48,1.92
	c-0.16,0-0.32,0-0.48,0c-0.32,0.96-0.64,1.92-0.96,2.88c-0.16,0-0.32,0-0.48,0c0,0.48,0,0.96,0,1.44c-0.16,0-0.32,0-0.48,0
	c0,0.48,0,0.96,0,1.44c-0.16,0-0.32,0-0.48,0c0,0.48,0,0.96,0,1.44c-0.16,0-0.32,0-0.48,0c0,0.64,0,1.28,0,1.92
	c-0.16,0-0.32,0-0.48,0c-0.16,3.04-0.32,6.08-0.48,9.12c0.16,0,0.32,0,0.48,0c0,0.959,0,1.92,0,2.88c0.16,0,0.32,0,0.48,0
	c0,0.64,0,1.28,0,1.92c0.16,0,0.32,0,0.48,0c0,0.48,0,0.96,0,1.44c0.16,0,0.32,0,0.48,0c0,0.48,0,0.96,0,1.44
	c0.32,0.16,0.64,0.32,0.96,0.48c0.16,0.64,0.32,1.28,0.48,1.92c0.64,0.48,1.28,0.96,1.92,1.44c0,0.32,0,0.64,0,0.96
	c0.48,0.16,0.96,0.32,1.44,0.48c0.48,0.64,0.96,1.28,1.44,1.92c0.32,0,0.64,0,0.96,0c0,0.16,0,0.32,0,0.48
	c0.96,0.32,1.92,0.64,2.88,0.96c0,0.16,0,0.32,0,0.48c0.96,0.16,1.92,0.32,2.88,0.48c0,0.16,0,0.32,0,0.48
	c2.088,0.673,8.646-0.059,10.08-0.48c1.439-0.16,2.88-0.32,4.32-0.48c0-0.16,0-0.32,0-0.48c0.64-0.16,1.28-0.32,1.92-0.48
	c0-0.16,0-0.32,0-0.48c0.48,0,0.96,0,1.44,0c0.16-0.32,0.32-0.64,0.48-0.96c0.32,0,0.64,0,0.96,0c0.48-0.64,0.96-1.28,1.44-1.92
	c0.48-0.16,0.96-0.32,1.44-0.48c0-0.32,0-0.64,0-0.96c0.48-0.32,0.96-0.64,1.44-0.96c0-0.32,0-0.64,0-0.96
	c0.32-0.16,0.64-0.32,0.96-0.48c0-0.32,0-0.64,0-0.96c0.16,0,0.32,0,0.48,0c0-0.48,0-0.96,0-1.44c0.16,0,0.32,0,0.48,0
	C45.759,37.401,45.735,28.844,44.413,25.44z M32.606,39.4c0,0.326,0,0.652,0,0.979c-0.065,0-0.131,0-0.197,0
	c0,0.217,0,0.435,0,0.652c-0.065,0-0.131,0-0.197,0c0,0.163,0,0.326,0,0.489c-0.065,0-0.131,0-0.197,0c0,0.163,0,0.326,0,0.489
	c-0.131,0.054-0.262,0.109-0.394,0.163c-0.065,0.217-0.131,0.435-0.197,0.652c-0.262,0.163-0.524,0.326-0.787,0.489
	c0,0.109,0,0.217,0,0.326c-0.197,0.054-0.394,0.109-0.59,0.163c-0.197,0.217-0.394,0.435-0.59,0.652c-0.131,0-0.262,0-0.393,0
	c0,0.054,0,0.108,0,0.163c-0.394,0.109-0.788,0.218-1.181,0.326c0,0.055,0,0.109,0,0.163c-0.394,0.055-0.787,0.109-1.181,0.163
	c0,0.054,0,0.108,0,0.163c-0.856,0.229-3.544-0.02-4.132-0.163c-0.59-0.054-1.18-0.108-1.771-0.163c0-0.054,0-0.108,0-0.163
	c-0.262-0.054-0.524-0.108-0.787-0.163c0-0.054,0-0.109,0-0.163c-0.197,0-0.394,0-0.591,0c-0.065-0.109-0.131-0.218-0.197-0.326
	c-0.131,0-0.262,0-0.394,0c-0.197-0.218-0.393-0.435-0.59-0.652c-0.197-0.054-0.394-0.109-0.59-0.163c0-0.109,0-0.217,0-0.326
	c-0.197-0.108-0.394-0.217-0.591-0.326c0-0.109,0-0.218,0-0.327c-0.131-0.054-0.262-0.108-0.394-0.163c0-0.109,0-0.217,0-0.326
	c-0.065,0-0.131,0-0.197,0c0-0.163,0-0.326,0-0.489c-0.065,0-0.131,0-0.197,0c-0.551-1.155-0.542-4.062,0-5.219
	c0.066,0,0.131,0,0.197,0c0-0.163,0-0.326,0-0.489c0.066,0,0.131,0,0.197,0c0-0.108,0-0.217,0-0.326c0.066,0,0.131,0,0.197,0
	c0.197-0.489,0.394-0.979,0.591-1.468c0.065,0,0.131,0,0.197,0c0.065-0.163,0.131-0.326,0.196-0.489
	c0.131-0.055,0.263-0.109,0.394-0.163c0-0.109,0-0.218,0-0.326c0.197-0.109,0.393-0.217,0.59-0.326
	c0.393-0.459,0.354-0.681,0.984-0.979c0-0.054,0-0.109,0-0.163c0.065,0,0.131,0,0.197,0c0.071,0.115,0.393,0.327,0.393,0.327
	c0,0.543,0,1.087,0,1.63c0.066,0,0.131,0,0.197,0c0.066,0.163,0.131,0.326,0.197,0.489c1.566,0.558,3.19,0.242,3.542-1.142
	c0.065,0,0.131,0,0.197,0c0-0.326,0-0.652,0-0.978c0.517-1.439-0.283-2.851-0.59-4.078c0.065,0,0.131,0,0.197,0
	c0.223-0.183-0.002-0.07,0.394-0.163c0.343,0.328,0.432,0.135,0.787,0.326c0.066,0.109,0.131,0.218,0.197,0.327
	c0.921,0.513,1.787,0.821,2.361,1.63c0.131,0,0.262,0,0.394,0c0,0.109,0,0.218,0,0.326c0.131,0,0.262,0,0.394,0
	c0,0.109,0,0.218,0,0.326c0.131,0,0.262,0,0.394,0c0.242,0.708,0.623,0.556,0.983,0.979c0,0.109,0,0.217,0,0.327
	c0.131,0.054,0.262,0.108,0.394,0.163c0,0.108,0,0.217,0,0.326c0.131,0.054,0.262,0.109,0.394,0.163
	c0.065,0.217,0.131,0.435,0.196,0.652c0.066,0,0.131,0,0.197,0c0.131,0.326,0.263,0.652,0.394,0.979c0.066,0,0.131,0,0.197,0
	c0,0.163,0,0.326,0,0.489c0.065,0,0.131,0,0.197,0c0,0.163,0,0.326,0,0.489c0.065,0,0.131,0,0.197,0c0,0.164,0,0.327,0,0.49
	c0.065,0,0.131,0,0.197,0c0,0.217,0,0.435,0,0.652c0.065,0,0.131,0,0.197,0c0.065,1.033,0.131,2.066,0.197,3.099
	C32.737,39.4,32.671,39.4,32.606,39.4z"/>
</svg>
